<svg xmlns="http://www.w3.org/2000/svg" viewBox="0 0 1200 800" role="img" aria-labelledby="title desc"><title id="title">Ultrasound probes and connectors</title><desc id="desc">A technical illustration showing ultrasound probes, connectors, and compatibility notes.</desc><rect width="1200" height="800" fill="#e8f3f5"/><path d="M0 620h1200" stroke="#c6dce2" stroke-width="3"/><g transform="translate(160 145) rotate(-14)"><path d="M65 160h460c32 0 58 26 58 58v35c0 32-26 58-58 58H65Z" fill="#10233e"/><path d="M525 160h105v151H525Z" fill="#1264f4"/><path d="M630 182h120v106H630Z" fill="#74d6cf"/><path d="M750 202h180v66H750Z" fill="#10233e"/><path d="M930 211c68 0 96 16 96 25s-28 25-96 25" fill="#1264f4"/><path d="M1000 236c38 15 67 35 67 48" fill="none" stroke="#10233e" stroke-width="13" stroke-linecap="round"/></g><g transform="translate(270 410) rotate(12)"><path d="M65 160h400c30 0 55 25 55 55v30c0 30-25 55-55 55H65Z" fill="#f8fbfd" stroke="#10233e" stroke-width="7"/><path d="M520 160h110v140H520Z" fill="#1264f4"/><path d="M630 180h110v100H630Z" fill="#10233e"/><path d="M740 205h170v50H740Z" fill="#74d6cf"/><path d="M900 215c62 0 88 12 88 25s-26 25-88 25" fill="#10233e"/></g><g fill="#10233e" font-family="Arial,sans-serif" font-size="16" letter-spacing="3"><text x="82" y="96">COMPATIBILITY DESK / PROBE MATCHING</text><text x="830" y="650">LINEAR</text><text x="950" y="680">CONVEX</text></g><path d="M830 610h90M950 640h120" stroke="#1264f4" stroke-width="4"/><circle cx="86" cy="700" r="14" fill="#1264f4"/><text x="115" y="706" fill="#10233e" font-family="Arial,sans-serif" font-size="13" letter-spacing="2">MAKE / MODEL / CONNECTOR</text></svg>