<svg xmlns="http://www.w3.org/2000/svg" viewBox="0 0 1200 800" role="img" aria-labelledby="title desc"><title id="title">Ultrasound scan display and imaging controls</title><desc id="desc">A focused technical illustration of an ultrasound scan screen with measurement overlays and controls.</desc><rect width="1200" height="800" fill="#10233e"/><rect x="98" y="94" width="760" height="520" rx="12" fill="#173e72" stroke="#74d6cf" stroke-width="5"/><path d="M148 510c78-260 154-221 218-72 60 140 120 75 192-90 62-144 120-44 174 91 58 144 100 55 160-105" fill="none" stroke="#eefbfb" stroke-width="10" stroke-linecap="round"/><path d="M150 224h650M150 354h650M150 484h650M280 135v440M450 135v440M620 135v440" stroke="#74d6cf" stroke-width="2" opacity=".35"/><path d="M510 170v270M380 305h260" stroke="#fff" stroke-width="3"/><circle cx="510" cy="305" r="10" fill="#74d6cf"/><path d="M730 150h90M730 172h55" stroke="#eefbfb" stroke-width="4"/><text x="132" y="132" fill="#eefbfb" font-family="Arial,sans-serif" font-size="15" letter-spacing="3">WTS / DIAGNOSTIC VIEW</text><g transform="translate(925 160)"><rect width="160" height="330" rx="8" fill="#f8fbfd"/><circle cx="80" cy="65" r="30" fill="#1264f4"/><circle cx="80" cy="65" r="11" fill="#dcecf2"/><circle cx="80" cy="160" r="30" fill="#74d6cf"/><circle cx="80" cy="255" r="30" fill="#1264f4"/><path d="M42 65h-25M118 65h25M42 160h-25M118 160h25M42 255h-25M118 255h25" stroke="#10233e" stroke-width="6"/></g><g fill="#eefbfb" font-family="Arial,sans-serif" font-size="14" letter-spacing="3"><text x="100" y="700">IMAGE QUALITY / CONTROL</text><text x="900" y="700">B-MODE READY</text></g><path d="M100 670h190M900 670h190" stroke="#74d6cf" stroke-width="3"/></svg>